<svg id="Component_1_1" data-name="Component 1 – 1" xmlns="http://www.w3.org/2000/svg" width="8.591" height="14" viewBox="0 0 8.591 14">
  <path id="chevron-down" d="M9.456,128.362,5.789,124.7a.453.453,0,0,1,0-.64l.428-.428a.453.453,0,0,1,.64,0l2.92,2.906,2.92-2.906a.453.453,0,0,1,.64,0l.428.428a.453.453,0,0,1,0,.64L10.1,128.362A.453.453,0,0,1,9.456,128.362Z" transform="translate(-5.304 -114.495)" fill="#838eab"/>
  <path id="chevron-down-2" data-name="chevron-down" d="M9.456,128.362,5.789,124.7a.453.453,0,0,1,0-.64l.428-.428a.453.453,0,0,1,.64,0l2.92,2.906,2.92-2.906a.453.453,0,0,1,.64,0l.428.428a.453.453,0,0,1,0,.64L10.1,128.362A.453.453,0,0,1,9.456,128.362Z" transform="translate(13.895 128.495) rotate(180)" fill="#838eab"/>
</svg>
